<svg xmlns="http://www.w3.org/2000/svg" width="77.738" height="30" viewBox="0 0 77.738 30"><g transform="translate(-108.425 -224.284)"><path d="M114.422,247.717c0,1.738-.5,4.186-4.718,5.427l-1.279.376v4.8l2.517-.74c5.216-1.533,8.087-5.055,8.087-9.916V229.226l-4.608,1.354Z" transform="translate(0 -4.038)" fill="#8096a3"/><path d="M222.16,246.437c5.073-1.491,7.867-4.917,7.867-9.647,0-4.257-3.375-6.331-6.546-6.331-3.336,0-10.43,2.5-10.43,10.029v11.383c0,4.257,3.375,6.331,6.545,6.331,3.336,0,10.43-2.5,10.43-10.029v-1.289l-4.388,1.289c0,4.514-4.584,5.64-6.023,5.64-1.231,0-2.176-.547-2.176-1.941v-4.048Zm-4.719-5.948c0-4.515,4.583-5.64,6.022-5.64,1.231,0,2.176.547,2.176,1.941,0,1.738-.49,4.193-4.718,5.435l-3.481,1.023Z" transform="translate(-85.498 -5.046)" fill="#8096a3"/><path d="M355.874,234.89c0-1.738.5-4.186,4.718-5.427l1.279-.375v-4.8l-2.517.74c-5.216,1.533-8.087,5.055-8.087,9.916v18.441l4.607-1.354Z" transform="translate(-198.444)" fill="#8096a3"/><path d="M451.2,230.458c-3.336,0-10.43,2.5-10.43,10.029v1.29l4.389-1.289c0-4.515,4.583-5.64,6.022-5.64,1.231,0,2.176.547,2.176,1.941v4.048l-4.719,1.387c-5.074,1.491-7.867,4.917-7.867,9.647,0,4.257,3.375,6.331,6.545,6.331,3.336,0,10.43-2.5,10.43-10.029V236.789c0-4.256-3.375-6.331-6.545-6.331m2.157,17.714c0,4.514-4.583,5.64-6.022,5.64-1.231,0-2.176-.547-2.176-1.941,0-1.738.489-4.193,4.718-5.435l3.48-1.023Z" transform="translate(-271.585 -5.045)" fill="#8096a3"/></g></svg>