<svg xmlns="http://www.w3.org/2000/svg" width="442" height="250" viewBox="0 0 442 250" fill="none"><path d="M23.1794 220.609H7.60422V228.991H21.9467C23.005 228.991 23.7874 229.227 24.3052 229.7C24.8231 230.173 25.0877 230.798 25.0877 231.574C25.0877 232.357 24.8344 232.987 24.3165 233.471C23.8043 233.961 23.0162 234.203 21.9467 234.203H7.60422V243.913H23.7142C24.8006 243.913 25.6224 244.166 26.174 244.673C26.7257 245.18 26.9959 245.849 26.9959 246.682C26.9959 247.493 26.72 248.152 26.174 248.653C25.6224 249.159 24.8062 249.412 23.7142 249.412H4.93048C3.42192 249.412 2.34117 249.075 1.68259 248.411C1.01838 247.746 0.691895 246.66 0.691895 245.174V219.523C0.691895 218.527 0.838249 217.716 1.13658 217.086C1.43492 216.455 1.89085 216.005 2.52129 215.712C3.1461 215.425 3.95104 215.284 4.93048 215.284H23.1794C24.2771 215.284 25.0989 215.526 25.6337 216.016C26.1684 216.506 26.4386 217.147 26.4386 217.941C26.4386 218.752 26.174 219.393 25.6337 219.883C25.0933 220.373 24.2771 220.609 23.1794 220.609Z" fill="#8CC63F"></path><path d="M45.824 247.359L41.2139 240.588L36.4913 247.359C35.8045 248.305 35.2304 248.98 34.7576 249.386C34.2847 249.785 33.6824 249.988 32.9507 249.988C32.1457 249.988 31.4534 249.729 30.8905 249.228C30.3276 248.727 30.0461 248.147 30.0461 247.494C30.0461 246.825 30.4796 245.873 31.3464 244.629L37.0935 236.389L31.9994 229.521C31.11 228.39 30.671 227.399 30.671 226.566C30.671 225.913 30.9299 225.345 31.459 224.86C31.9881 224.382 32.6748 224.14 33.5304 224.14C34.2735 224.14 34.8926 224.348 35.3824 224.77C35.8721 225.181 36.4406 225.846 37.0935 226.752L41.2139 232.381L45.2161 226.752C45.8859 225.823 46.4601 225.153 46.9498 224.748C47.4395 224.348 48.0474 224.146 48.7792 224.146C49.6179 224.146 50.3103 224.382 50.8619 224.855C51.4135 225.333 51.6894 225.902 51.6894 226.572C51.6894 227.05 51.5768 227.512 51.3516 227.951C51.1265 228.395 50.7831 228.925 50.3159 229.527L45.2161 236.394L50.9632 244.635C51.8639 245.924 52.3085 246.892 52.3085 247.545C52.3085 248.215 52.0327 248.789 51.4698 249.268C50.9126 249.752 50.2258 249.994 49.3984 249.994C48.6723 249.994 48.0531 249.78 47.5465 249.369C47.0511 248.941 46.4713 248.277 45.824 247.359Z" fill="#8CC63F"></path><path d="M80.0561 237.075C80.0561 238.966 79.7634 240.711 79.1724 242.316C78.5814 243.909 77.7314 245.282 76.6112 246.43C75.4911 247.579 74.157 248.457 72.6091 249.07C71.0611 249.684 69.3162 249.993 67.3742 249.993C65.4491 249.993 63.721 249.684 62.1843 249.065C60.6532 248.44 59.3192 247.551 58.1934 246.397C57.0676 245.237 56.212 243.875 55.6322 242.293C55.0525 240.717 54.7598 238.978 54.7598 237.069C54.7598 235.144 55.0525 233.383 55.6435 231.784C56.2289 230.191 57.0732 228.823 58.1765 227.686C59.2798 226.549 60.6138 225.682 62.1787 225.063C63.7492 224.455 65.4772 224.146 67.3686 224.146C69.2936 224.146 71.0386 224.461 72.6035 225.08C74.1739 225.693 75.5192 226.588 76.6338 227.737C77.7483 228.885 78.5983 230.242 79.1837 231.835C79.7634 233.422 80.0561 235.161 80.0561 237.075ZM73.6729 237.075C73.6729 234.48 73.0988 232.465 71.9618 231.024C70.8191 229.577 69.288 228.857 67.3629 228.857C66.1246 228.857 65.0269 229.178 64.0813 229.819C63.1356 230.461 62.4038 231.412 61.8916 232.673C61.385 233.934 61.1261 235.398 61.1261 237.075C61.1261 238.736 61.3794 240.188 61.8804 241.421C62.3813 242.67 63.1075 243.616 64.0475 244.275C64.9875 244.939 66.0908 245.265 67.3629 245.265C69.288 245.265 70.8191 244.539 71.9618 243.087C73.1044 241.635 73.6729 239.631 73.6729 237.075Z" fill="#8CC63F"></path><path d="M85.3924 224.713H86.0904V220.902C86.0904 219.872 86.1186 219.072 86.1692 218.487C86.2255 217.902 86.3775 217.406 86.6252 216.984C86.8728 216.551 87.2275 216.19 87.6947 215.926C88.1619 215.656 88.6797 215.526 89.2539 215.526C90.0644 215.526 90.7906 215.825 91.4435 216.427C91.8769 216.832 92.1528 217.327 92.271 217.907C92.3836 218.493 92.4455 219.314 92.4455 220.384V224.713H94.7702C95.6708 224.713 96.3576 224.932 96.8304 225.354C97.3032 225.782 97.5396 226.328 97.5396 226.992C97.5396 227.848 97.2019 228.45 96.5264 228.782C95.851 229.131 94.8828 229.3 93.6275 229.3H92.4455V240.986C92.4455 241.982 92.4792 242.748 92.5468 243.277C92.6143 243.817 92.8001 244.251 93.104 244.577C93.408 244.915 93.9034 245.078 94.5845 245.078C94.956 245.078 95.4626 245.01 96.0986 244.881C96.7347 244.752 97.2301 244.684 97.5903 244.684C98.1025 244.684 98.5641 244.892 98.975 245.298C99.3859 245.708 99.5886 246.221 99.5886 246.823C99.5886 247.847 99.0313 248.63 97.9168 249.176C96.7966 249.716 95.1924 249.992 93.0984 249.992C91.1114 249.992 89.6029 249.654 88.584 248.99C87.5539 248.32 86.8897 247.403 86.5689 246.221C86.2537 245.039 86.096 243.468 86.096 241.492V229.295H85.263C84.3454 229.295 83.6475 229.081 83.1634 228.642C82.6849 228.214 82.4429 227.657 82.4429 226.987C82.4429 226.322 82.6962 225.776 83.2028 225.349C83.6981 224.932 84.4299 224.713 85.3924 224.713Z" fill="#8CC63F"></path><path d="M105.133 221.202C104.25 221.202 103.49 220.926 102.865 220.38C102.24 219.834 101.925 219.074 101.925 218.078C101.925 217.177 102.246 216.44 102.887 215.849C103.529 215.269 104.283 214.982 105.133 214.982C105.955 214.982 106.687 215.247 107.323 215.776C107.959 216.305 108.274 217.065 108.274 218.078C108.274 219.057 107.965 219.823 107.34 220.369C106.721 220.926 105.989 221.202 105.133 221.202ZM108.274 227.765V246.127C108.274 247.41 107.97 248.367 107.368 249.02C106.766 249.673 105.995 250 105.06 250C104.131 250 103.377 249.662 102.792 248.998C102.212 248.328 101.925 247.376 101.925 246.127V227.951C101.925 226.69 102.212 225.744 102.792 225.108C103.377 224.472 104.131 224.152 105.06 224.152C105.995 224.152 106.766 224.472 107.368 225.108C107.97 225.744 108.274 226.628 108.274 227.765Z" fill="#8CC63F"></path><path d="M137.641 242.12C137.641 242.913 137.405 243.758 136.932 244.658C136.459 245.559 135.739 246.42 134.765 247.231C133.797 248.052 132.575 248.705 131.101 249.201C129.626 249.696 127.965 249.944 126.119 249.944C122.19 249.944 119.128 248.801 116.927 246.516C114.72 244.225 113.623 241.157 113.623 237.301C113.623 234.695 114.124 232.393 115.137 230.395C116.145 228.391 117.602 226.837 119.516 225.745C121.425 224.659 123.71 224.107 126.361 224.107C128.005 224.107 129.513 224.349 130.887 224.828C132.26 225.312 133.425 225.931 134.377 226.691C135.334 227.456 136.06 228.261 136.566 229.122C137.073 229.984 137.321 230.789 137.321 231.537C137.321 232.297 137.039 232.939 136.476 233.468C135.908 234.003 135.221 234.262 134.416 234.262C133.887 234.262 133.454 234.132 133.099 233.856C132.75 233.581 132.361 233.147 131.928 232.545C131.151 231.363 130.341 230.479 129.491 229.888C128.646 229.297 127.571 229.004 126.265 229.004C124.391 229.004 122.877 229.742 121.728 231.211C120.58 232.674 120.006 234.678 120.006 237.222C120.006 238.421 120.152 239.513 120.451 240.515C120.743 241.523 121.171 242.367 121.728 243.076C122.286 243.786 122.961 244.32 123.755 244.681C124.543 245.041 125.415 245.232 126.361 245.232C127.633 245.232 128.72 244.934 129.631 244.343C130.543 243.758 131.343 242.857 132.041 241.647C132.429 240.926 132.846 240.369 133.296 239.964C133.746 239.57 134.298 239.367 134.945 239.367C135.722 239.367 136.369 239.66 136.882 240.245C137.383 240.831 137.641 241.455 137.641 242.12Z" fill="#8CC63F"></path><path d="M168.776 236.117H162.443V245.782C162.443 247.161 162.117 248.208 161.469 248.923C160.816 249.638 159.995 249.992 158.998 249.992C157.957 249.992 157.124 249.638 156.488 248.934C155.852 248.23 155.531 247.189 155.531 245.827V219.523C155.531 217.997 155.88 216.911 156.583 216.264C157.281 215.611 158.39 215.284 159.91 215.284H168.776C171.399 215.284 173.419 215.487 174.827 215.887C176.228 216.275 177.433 216.922 178.452 217.817C179.471 218.718 180.236 219.816 180.771 221.121C181.294 222.427 181.559 223.891 181.559 225.523C181.559 228.996 180.489 231.636 178.345 233.426C176.206 235.222 173.014 236.117 168.776 236.117ZM167.098 220.474H162.443V230.905H167.098C168.725 230.905 170.087 230.741 171.185 230.398C172.282 230.049 173.11 229.492 173.69 228.715C174.264 227.938 174.551 226.925 174.551 225.67C174.551 224.161 174.106 222.934 173.228 221.988C172.226 220.981 170.188 220.474 167.098 220.474Z" fill="#8CC63F"></path><path d="M202.82 238.63H190.391C190.403 240.071 190.701 241.348 191.264 242.452C191.827 243.555 192.581 244.382 193.521 244.94C194.461 245.497 195.497 245.778 196.628 245.778C197.388 245.778 198.08 245.683 198.716 245.502C199.341 245.328 199.949 245.046 200.54 244.669C201.131 244.292 201.672 243.881 202.173 243.448C202.668 243.009 203.31 242.418 204.103 241.68C204.43 241.399 204.897 241.264 205.499 241.264C206.152 241.264 206.676 241.438 207.081 241.799C207.481 242.153 207.683 242.66 207.683 243.318C207.683 243.893 207.458 244.562 207.008 245.322C206.558 246.099 205.882 246.831 204.97 247.54C204.064 248.249 202.921 248.829 201.553 249.302C200.18 249.764 198.598 250 196.814 250C192.733 250 189.558 248.835 187.295 246.504C185.027 244.18 183.896 241.022 183.896 237.031C183.896 235.157 184.177 233.406 184.734 231.802C185.297 230.197 186.108 228.818 187.183 227.67C188.252 226.522 189.569 225.649 191.14 225.03C192.71 224.411 194.444 224.113 196.358 224.113C198.835 224.113 200.968 224.636 202.747 225.677C204.526 226.73 205.854 228.087 206.738 229.747C207.621 231.402 208.06 233.096 208.06 234.819C208.06 236.417 207.605 237.453 206.687 237.926C205.77 238.399 204.481 238.63 202.82 238.63ZM190.391 235.021H201.914C201.756 232.854 201.171 231.228 200.152 230.147C199.133 229.077 197.799 228.531 196.138 228.531C194.551 228.531 193.256 229.083 192.243 230.175C191.224 231.267 190.611 232.882 190.391 235.021Z" fill="#8CC63F"></path><path d="M213.764 224.713H214.462V220.902C214.462 219.872 214.49 219.072 214.54 218.487C214.597 217.902 214.749 217.406 214.996 216.984C215.244 216.551 215.599 216.19 216.066 215.926C216.533 215.656 217.051 215.526 217.625 215.526C218.436 215.526 219.162 215.825 219.815 216.427C220.248 216.832 220.524 217.327 220.642 217.907C220.755 218.493 220.817 219.314 220.817 220.384V224.713H223.147C224.048 224.713 224.734 224.932 225.202 225.354C225.68 225.782 225.916 226.328 225.916 226.992C225.916 227.848 225.579 228.45 224.903 228.782C224.228 229.131 223.26 229.3 222.004 229.3H220.817V240.986C220.817 241.982 220.85 242.748 220.924 243.277C220.991 243.817 221.177 244.251 221.481 244.577C221.785 244.915 222.28 245.078 222.961 245.078C223.333 245.078 223.839 245.01 224.475 244.881C225.111 244.752 225.607 244.684 225.961 244.684C226.479 244.684 226.935 244.892 227.346 245.298C227.757 245.708 227.965 246.221 227.965 246.823C227.965 247.847 227.402 248.63 226.288 249.176C225.173 249.716 223.563 249.992 221.47 249.992C219.483 249.992 217.974 249.654 216.955 248.99C215.925 248.32 215.255 247.403 214.94 246.221C214.625 245.039 214.467 243.468 214.467 241.492V229.295H213.628C212.711 229.295 212.013 229.081 211.529 228.642C211.05 228.214 210.808 227.657 210.808 226.987C210.808 226.322 211.062 225.776 211.568 225.349C212.069 224.932 212.801 224.713 213.764 224.713Z" fill="#8CC63F"></path><path d="M250.739 241.68C250.739 243.436 250.317 244.939 249.461 246.183C248.605 247.433 247.345 248.384 245.673 249.026C244.007 249.667 241.98 249.994 239.588 249.994C237.308 249.994 235.349 249.639 233.723 248.941C232.09 248.243 230.891 247.376 230.109 246.324C229.332 245.277 228.949 244.224 228.949 243.166C228.949 242.468 229.191 241.871 229.692 241.376C230.188 240.881 230.818 240.627 231.578 240.627C232.242 240.627 232.76 240.79 233.115 241.117C233.469 241.449 233.813 241.905 234.139 242.496C234.792 243.627 235.569 244.477 236.475 245.029C237.387 245.592 238.625 245.862 240.19 245.862C241.462 245.862 242.504 245.581 243.325 245.012C244.142 244.449 244.547 243.802 244.547 243.07C244.547 241.956 244.125 241.139 243.275 240.622C242.431 240.109 241.04 239.62 239.098 239.158C236.909 238.606 235.13 238.044 233.756 237.441C232.383 236.85 231.291 236.062 230.463 235.083C229.636 234.103 229.225 232.899 229.225 231.469C229.225 230.197 229.602 228.998 230.368 227.861C231.128 226.729 232.248 225.823 233.734 225.153C235.22 224.478 237.004 224.134 239.098 224.134C240.742 224.134 242.222 224.309 243.534 224.652C244.84 224.996 245.937 225.452 246.815 226.02C247.688 226.6 248.358 227.236 248.814 227.934C249.27 228.626 249.5 229.313 249.5 229.977C249.5 230.709 249.253 231.306 248.769 231.767C248.273 232.234 247.581 232.465 246.68 232.465C246.033 232.465 245.476 232.28 245.02 231.902C244.558 231.537 244.035 230.974 243.449 230.225C242.965 229.611 242.397 229.11 241.749 228.739C241.096 228.367 240.218 228.176 239.093 228.176C237.944 228.176 236.993 228.424 236.227 228.913C235.468 229.403 235.09 230.005 235.09 230.737C235.09 231.401 235.372 231.953 235.923 232.375C236.486 232.803 237.229 233.163 238.175 233.433C239.126 233.715 240.427 234.053 242.087 234.464C244.057 234.942 245.673 235.516 246.917 236.186C248.166 236.85 249.118 237.638 249.759 238.55C250.418 239.485 250.739 240.52 250.739 241.68Z" fill="#8CC63F"></path><path d="M290.651 220.987H283.102V245.782C283.102 247.206 282.781 248.259 282.151 248.951C281.515 249.643 280.693 249.992 279.685 249.992C278.661 249.992 277.828 249.638 277.186 248.94C276.544 248.242 276.218 247.184 276.218 245.776V220.981H268.675C267.493 220.981 266.621 220.722 266.047 220.204C265.467 219.681 265.185 218.994 265.185 218.138C265.185 217.26 265.484 216.562 266.08 216.044C266.671 215.532 267.544 215.279 268.675 215.279H290.651C291.844 215.279 292.733 215.543 293.319 216.073C293.898 216.602 294.186 217.294 294.186 218.138C294.186 218.994 293.893 219.681 293.307 220.204C292.711 220.728 291.827 220.987 290.651 220.987Z" fill="#8CC63F"></path><path d="M302.339 240.818V246.121C302.339 247.415 302.035 248.378 301.433 249.025C300.831 249.673 300.059 249.993 299.131 249.993C298.213 249.993 297.459 249.667 296.873 249.014C296.288 248.367 295.99 247.404 295.99 246.121V228.435C295.99 225.575 297.025 224.146 299.091 224.146C300.15 224.146 300.904 224.483 301.365 225.153C301.833 225.817 302.092 226.802 302.137 228.108C302.902 226.802 303.673 225.817 304.478 225.153C305.277 224.483 306.341 224.146 307.675 224.146C309.009 224.146 310.31 224.483 311.565 225.153C312.82 225.817 313.445 226.701 313.445 227.804C313.445 228.587 313.18 229.223 312.64 229.729C312.105 230.236 311.531 230.484 310.906 230.484C310.67 230.484 310.107 230.343 309.218 230.056C308.323 229.763 307.535 229.622 306.854 229.622C305.919 229.622 305.159 229.87 304.574 230.36C303.983 230.85 303.527 231.57 303.2 232.538C302.874 233.501 302.649 234.643 302.525 235.972C302.407 237.289 302.339 238.91 302.339 240.818Z" fill="#8CC63F"></path><path d="M331.784 246.409C330.253 247.602 328.767 248.497 327.331 249.094C325.89 249.696 324.28 249.995 322.502 249.995C320.869 249.995 319.439 249.668 318.201 249.026C316.968 248.385 316.017 247.507 315.353 246.409C314.683 245.306 314.351 244.112 314.351 242.823C314.351 241.078 314.902 239.598 316 238.376C317.103 237.144 318.618 236.328 320.543 235.911C320.948 235.81 321.95 235.607 323.543 235.286C325.141 234.954 326.509 234.661 327.652 234.386C328.789 234.115 330.027 233.789 331.361 233.395C331.283 231.723 330.951 230.49 330.348 229.708C329.752 228.926 328.513 228.531 326.633 228.531C325.023 228.531 323.807 228.762 322.997 229.207C322.181 229.657 321.477 230.333 320.903 231.233C320.317 232.128 319.907 232.725 319.665 233.012C319.422 233.299 318.91 233.44 318.122 233.44C317.407 233.44 316.794 233.209 316.27 232.753C315.747 232.297 315.488 231.712 315.488 230.991C315.488 229.877 315.882 228.785 316.676 227.738C317.469 226.68 318.696 225.813 320.379 225.126C322.051 224.445 324.14 224.102 326.633 224.102C329.431 224.102 331.626 224.434 333.225 225.092C334.818 225.751 335.949 226.798 336.613 228.222C337.272 229.652 337.604 231.549 337.604 233.902C337.604 235.399 337.598 236.654 337.593 237.701C337.581 238.742 337.576 239.902 337.559 241.168C337.559 242.362 337.756 243.611 338.144 244.9C338.544 246.195 338.741 247.034 338.741 247.405C338.741 248.058 338.431 248.649 337.818 249.184C337.21 249.719 336.512 249.989 335.735 249.989C335.088 249.989 334.44 249.679 333.804 249.066C333.174 248.458 332.498 247.574 331.784 246.409ZM331.367 237.211C330.438 237.555 329.082 237.915 327.303 238.292C325.524 238.669 324.297 238.951 323.616 239.125C322.935 239.305 322.282 239.654 321.657 240.178C321.032 240.701 320.728 241.422 320.728 242.356C320.728 243.319 321.089 244.135 321.82 244.81C322.552 245.486 323.503 245.829 324.686 245.829C325.946 245.829 327.106 245.553 328.164 245.002C329.228 244.45 330.005 243.741 330.5 242.874C331.08 241.911 331.361 240.33 331.361 238.123V237.211H331.367Z" fill="#8CC63F"></path><path d="M366.833 242.12C366.833 242.913 366.596 243.758 366.118 244.658C365.645 245.559 364.925 246.42 363.956 247.231C362.983 248.052 361.761 248.705 360.292 249.201C358.823 249.696 357.151 249.944 355.31 249.944C351.381 249.944 348.319 248.801 346.113 246.516C343.906 244.225 342.803 241.157 342.803 237.301C342.803 234.695 343.31 232.393 344.323 230.395C345.33 228.391 346.788 226.837 348.696 225.745C350.605 224.659 352.884 224.107 355.541 224.107C357.185 224.107 358.693 224.349 360.067 224.828C361.446 225.312 362.606 225.931 363.562 226.691C364.514 227.456 365.245 228.261 365.752 229.122C366.259 229.984 366.506 230.789 366.506 231.537C366.506 232.297 366.225 232.939 365.662 233.468C365.094 234.003 364.407 234.262 363.602 234.262C363.073 234.262 362.634 234.132 362.285 233.856C361.936 233.581 361.547 233.147 361.114 232.545C360.337 231.363 359.527 230.479 358.677 229.888C357.838 229.297 356.757 229.004 355.457 229.004C353.577 229.004 352.063 229.742 350.914 231.211C349.766 232.674 349.192 234.678 349.192 237.222C349.192 238.421 349.338 239.513 349.631 240.515C349.929 241.523 350.351 242.367 350.914 243.076C351.477 243.786 352.147 244.32 352.941 244.681C353.729 245.041 354.601 245.232 355.547 245.232C356.819 245.232 357.911 244.934 358.817 244.343C359.724 243.758 360.528 242.857 361.226 241.647C361.615 240.926 362.037 240.369 362.487 239.964C362.932 239.57 363.489 239.367 364.137 239.367C364.913 239.367 365.561 239.66 366.073 240.245C366.574 240.831 366.833 241.455 366.833 242.12Z" fill="#8CC63F"></path><path d="M386.398 247.085L380.786 237.865L377.341 241.118V246.167C377.341 247.4 377.02 248.34 376.378 248.999C375.737 249.657 374.994 249.989 374.149 249.989C373.176 249.989 372.404 249.663 371.853 249.01C371.284 248.363 371.014 247.4 371.014 246.117V219.025C371.014 217.617 371.284 216.542 371.83 215.805C372.376 215.068 373.148 214.702 374.155 214.702C375.135 214.702 375.917 215.039 376.485 215.704C377.065 216.368 377.341 217.353 377.341 218.659V234.065L384.495 226.573C385.379 225.644 386.055 225.008 386.516 224.665C386.983 224.321 387.552 224.147 388.216 224.147C389.01 224.147 389.668 224.4 390.198 224.907C390.727 225.414 390.997 226.038 390.997 226.804C390.997 227.738 390.136 228.977 388.408 230.53L385.03 233.626L391.548 243.865C392.027 244.631 392.37 245.199 392.584 245.604C392.798 245.993 392.899 246.376 392.899 246.73C392.899 247.743 392.624 248.531 392.078 249.117C391.532 249.702 390.8 249.989 389.899 249.989C389.122 249.989 388.531 249.775 388.109 249.365C387.676 248.942 387.107 248.188 386.398 247.085Z" fill="#8CC63F"></path><path d="M413.817 238.63H401.388C401.405 240.071 401.698 241.348 402.261 242.452C402.823 243.555 403.578 244.382 404.518 244.94C405.458 245.497 406.494 245.778 407.625 245.778C408.385 245.778 409.083 245.683 409.708 245.502C410.338 245.328 410.946 245.046 411.531 244.669C412.122 244.292 412.663 243.881 413.164 243.448C413.659 243.009 414.301 242.418 415.095 241.68C415.427 241.399 415.888 241.264 416.496 241.264C417.143 241.264 417.673 241.438 418.072 241.799C418.478 242.153 418.68 242.66 418.68 243.318C418.68 243.893 418.455 244.562 418.005 245.322C417.554 246.099 416.873 246.831 415.967 247.54C415.061 248.249 413.924 248.829 412.55 249.302C411.177 249.764 409.595 250 407.811 250C403.73 250 400.555 248.835 398.292 246.504C396.029 244.18 394.892 241.022 394.892 237.031C394.892 235.157 395.168 233.406 395.725 231.802C396.283 230.197 397.099 228.818 398.174 227.67C399.249 226.522 400.561 225.649 402.126 225.03C403.696 224.416 405.435 224.113 407.349 224.113C409.826 224.113 411.954 224.636 413.732 225.677C415.511 226.73 416.845 228.087 417.729 229.747C418.613 231.402 419.052 233.096 419.052 234.819C419.052 236.417 418.596 237.453 417.678 237.926C416.766 238.399 415.477 238.63 413.817 238.63ZM401.388 235.021H412.916C412.759 232.854 412.173 231.228 411.154 230.147C410.13 229.077 408.796 228.531 407.135 228.531C405.554 228.531 404.253 229.083 403.24 230.175C402.227 231.267 401.608 232.882 401.388 235.021Z" fill="#8CC63F"></path><path d="M430.706 240.818V246.121C430.706 247.415 430.402 248.378 429.794 249.025C429.192 249.667 428.426 249.993 427.492 249.993C426.574 249.993 425.826 249.667 425.24 249.014C424.649 248.367 424.356 247.404 424.356 246.121V228.435C424.356 225.575 425.387 224.146 427.452 224.146C428.511 224.146 429.265 224.483 429.732 225.153C430.199 225.817 430.453 226.802 430.498 228.108C431.263 226.802 432.04 225.817 432.839 225.153C433.639 224.483 434.708 224.146 436.036 224.146C437.371 224.146 438.671 224.483 439.926 225.153C441.181 225.817 441.812 226.701 441.812 227.804C441.812 228.587 441.542 229.223 441.007 229.729C440.466 230.236 439.892 230.484 439.267 230.484C439.037 230.484 438.468 230.343 437.579 230.056C436.689 229.763 435.896 229.622 435.22 229.622C434.286 229.622 433.52 229.87 432.935 230.36C432.35 230.85 431.888 231.57 431.561 232.538C431.235 233.501 431.01 234.643 430.892 235.972C430.762 237.289 430.706 238.91 430.706 240.818Z" fill="#8CC63F"></path><path d="M436.887 174.209H420.107C417.383 174.209 415.165 171.997 415.165 169.272V78.2303L376.365 129.966C375.436 131.21 373.967 131.941 372.419 131.941C370.866 131.941 369.402 131.215 368.473 129.966L362.039 121.398C351.288 107.05 340.548 92.736 329.735 78.3203V169.25C329.735 171.974 327.534 174.187 324.81 174.187H307.974C305.255 174.187 303.048 171.974 303.048 169.25V42.2783C303.048 39.5539 305.255 37.3418 307.974 37.3418L317.098 37.3474C319.232 37.3474 321.365 37.3418 323.498 37.3136C323.498 37.3136 323.498 37.3136 323.509 37.3136C326.014 37.3136 327.979 38.3099 329.442 40.2801C343.396 58.9174 357.373 77.5323 371.338 96.1584L372.419 97.6107C373.162 96.6031 373.905 95.6236 374.648 94.6442L383.711 82.542C394.265 68.4753 404.825 54.3974 415.362 40.3026C416.837 38.3437 418.908 37.3136 421.346 37.3136C424.262 37.3361 427.093 37.3474 429.947 37.3474L436.882 37.3418C439.606 37.3418 441.807 39.5539 441.807 42.2783V169.272C441.813 171.997 439.617 174.209 436.887 174.209Z" fill="#04161B"></path><path d="M61.0862 176.519C51.3481 176.519 41.9253 174.419 33.0766 170.254C17.7266 163.054 7.58887 150.648 2.91686 133.362C1.28447 127.328 0.586482 120.753 0.70469 112.631C0.721576 110.953 0.715948 109.248 0.70469 107.525V104.913C0.70469 102.189 2.91686 99.9767 5.63563 99.9767H22.5618C25.2862 99.9767 27.4871 102.189 27.4871 104.913L27.4646 108.769C27.4477 111.477 27.4252 114.162 27.5096 116.847C27.7404 124.834 29.6768 131.471 33.465 137.139C38.5029 144.699 45.5954 149.134 55.1533 150.682C62.5328 151.881 69.4564 151.189 75.7776 148.633C85.7521 144.592 91.9158 137.291 94.6008 126.309C95.4113 123.016 95.8448 119.318 95.8785 115.631C95.9911 100.872 95.9799 86.1183 95.963 71.3705L95.9461 59.9438H63.9682C61.2381 59.9438 59.0372 57.726 59.0372 55.0129V42.3872C59.0372 39.6797 61.2381 37.4675 63.9682 37.4675H117.798C120.432 37.4675 122.593 39.5277 122.723 42.1508L122.74 42.5448C122.768 42.9726 122.79 43.4004 122.79 43.8451L122.796 56.9211C122.807 76.1833 122.807 95.4511 122.79 114.708C122.774 126.945 120.37 137.342 115.417 146.489C107.682 160.786 95.6421 170.096 79.6278 174.132C73.3347 175.725 67.1035 176.519 61.0862 176.519Z" fill="#04161B"></path><path fill-rule="evenodd" clip-rule="evenodd" d="M247.535 110.827C257.29 110.585 265.109 109.296 271.999 102.952C278.314 97.1376 286.566 97.3853 294.328 100.763C298.989 102.789 301.049 110.028 298.753 116.242C297.301 120.166 295.375 123.892 293.011 127.472C287.219 136.236 276.839 133.709 271.97 127.714C264.551 118.589 250.789 115.921 240.341 121.162C238.613 122.029 238.05 123.391 237.257 124.781C230.902 135.921 222.768 139.946 210.108 137.39C196.183 134.576 184.958 127.461 177.444 115.088C175.474 111.852 174.933 108.187 174.421 104.568C173.262 96.4565 161.829 85.998 153.757 84.3487C147.554 83.0822 141.081 82.9021 135.142 80.3409C129.131 77.746 125.742 72.3197 125.9 65.413C126.074 58.1629 130.037 51.3407 135.925 49.7308C146.839 46.7587 160.084 57.6451 158.874 67.5182C157.911 75.3706 161.818 78.2751 167.481 81.0952C170.233 82.4686 172.699 84.405 175.384 85.9248C180.264 88.6886 184.784 87.8611 187.795 83.161C195.946 70.4227 200.86 56.5531 201.682 41.3381C201.851 38.2253 201.417 36.2608 197.984 34.5215C190.768 30.8627 187.497 20.725 190.075 12.9289C192.49 5.62819 201.862 -0.755001 209.416 0.072451C214.403 0.618457 218.259 2.89253 220.747 7.68838C224.817 15.5351 224.378 26.4383 217.871 31.5156C210.981 36.8969 208.397 43.843 207.204 51.7741C205.51 63.0151 203.23 74.2898 208.06 85.4013C210.761 91.6325 213.908 93.3493 220.19 90.5855C236.711 83.3242 249.764 71.7737 260.228 57.161C262.08 54.5773 262.683 51.9486 261.382 48.9146C257.352 39.4918 268.61 22.0928 278.731 19.1207C286.11 16.9536 296.276 24.3275 298.899 33.4013C302.158 44.6535 298.038 53.3446 286.397 55.3766C272.466 57.8083 262.407 65.7958 252.883 74.9596C246.432 81.174 240.043 87.6247 236.654 96.2595C236.39 96.9406 235.889 97.5316 235.658 98.224C233.181 105.722 234.938 108.705 242.739 110.157C244.715 110.529 246.719 110.715 247.535 110.827Z" fill="#8CC63F"></path><path d="M212.944 60.5122C224.41 60.5122 234.868 64.7733 242.862 71.7757C248.096 66.9968 252.943 61.486 257.463 55.176C258.296 54.0108 258.628 53.0708 258.662 52.2152C247.635 42.8149 233.681 36.7582 218.353 35.5986C214.098 39.5558 211.734 44.6724 210.591 52.2828L210.197 54.8495C209.893 56.8084 209.6 58.7447 209.341 60.6642C210.523 60.5741 211.728 60.5122 212.944 60.5122Z" fill="#04161B"></path><path d="M269.698 100.444C273.345 97.0839 277.702 95.277 282.639 95.0124C280.927 83.9966 276.655 73.8364 270.474 65.1285C265.251 68.3426 260.359 72.5249 255.265 77.4277C253.852 78.7842 252.501 80.1183 251.184 81.458C255.71 88.5166 258.338 96.9037 258.338 105.916C258.338 106.045 258.333 106.175 258.327 106.304C262.616 105.336 266.275 103.591 269.698 100.444Z" fill="#04161B"></path><path d="M162.263 67.9441C161.598 73.3366 163.456 75.2842 169.006 78.048C170.762 78.9205 172.355 79.9674 173.892 80.975C174.162 81.1495 174.421 81.3184 174.686 81.4872C179.194 74.4398 185.589 68.7096 193.171 65.0395C196.121 57.2941 197.837 49.3067 198.277 41.1616C198.395 38.9326 198.282 38.5048 196.441 37.5704C196.34 37.5197 196.25 37.4578 196.154 37.4071C182.155 40.8239 169.789 48.4173 160.461 58.7971C161.992 61.7917 162.634 64.9213 162.263 67.9441Z" fill="#04161B"></path><path d="M269.325 129.868C265.965 125.742 260.899 122.995 255.326 122.179C248.785 139.212 232.281 151.314 212.94 151.314C187.863 151.314 167.543 130.988 167.543 105.917C167.543 103.491 167.74 101.11 168.106 98.7851C164.43 93.7134 158.086 88.7206 153.082 87.6961C151.225 87.319 149.356 87.0432 147.369 86.7505C146.637 86.6435 145.9 86.5309 145.162 86.4184C143.383 92.6158 142.41 99.151 142.41 105.917C142.41 144.863 173.988 176.447 212.946 176.447C241.372 176.447 265.852 159.628 277.014 135.401C274.065 134.259 271.346 132.356 269.325 129.868Z" fill="#04161B"></path></svg>